<?xml version="1.0" encoding="utf-8"?>
<!-- Svg Vector Icons : http://www.onlinewebfonts.com/icon -->
<!DOCTYPE svg PUBLIC "-//W3C//DTD SVG 1.1//EN" "http://www.w3.org/Graphics/SVG/1.1/DTD/svg11.dtd">
<svg version="1.1" xmlns="http://www.w3.org/2000/svg" xmlns:xlink="http://www.w3.org/1999/xlink" x="0px" y="0px" viewBox="0 0 1000 1000" enable-background="new 0 0 1000 1000" xml:space="preserve">
<metadata> Svg Vector Icons : http://www.onlinewebfonts.com/icon </metadata>
<g><g transform="translate(0.000000,511.000000) scale(0.100000,-0.100000)"><path d="M1749.9,4998.3c-788.2-64.8-1477.1-699.7-1624-1492.2c-34.6-190-34.6-6621.1,0-6811.1c66.9-358.5,228.9-665.1,496.7-941.5c233.2-241.9,531.2-421.1,844.4-505.3c131.7-36.7,349.8-38.9,3541.6-38.9c3191.8,0,3409.9,2.1,3541.6,38.9c313.1,84.2,611.1,263.5,844.4,505.3c168.5,174.9,254.8,295.8,354.2,509.6c162,343.4,151.2,41,151.2,3837.4c0,3191.7-2.1,3409.9-38.9,3541.6c-138.2,503.2-498.9,943.7-976.1,1183.4c-162,79.9-373.6,146.9-537.7,166.3C8185.2,5013.4,1989.6,5017.7,1749.9,4998.3z M8366.6,4365.6c442.7-112.3,794.7-464.3,907-907c28.1-112.3,32.4-537.7,32.4-3358c0-3554.5,8.6-3334.3-133.9-3628c-92.9-190-345.5-442.7-535.6-535.6c-293.7-142.5-73.4-133.9-3628-133.9c-3554.5,0-3334.3-8.6-3628,133.9c-190,92.9-442.7,345.5-535.6,535.6c-142.5,293.7-133.9,73.4-133.9,3628c0,2820.3,4.3,3245.7,32.4,3358c112.3,436.2,462.1,790.4,896.2,904.8C1823.3,4413.1,8178.7,4413.1,8366.6,4365.6z"/><path d="M4730,638.3c-211.7-105.8-326.1-293.7-326.1-537.7s114.4-431.9,326.1-537.7c414.6-207.3,883.2,79.9,883.2,539.9C5613.2,560.5,5144.6,845.6,4730,638.3z"/></g></g>
</svg>