<?xml version="1.0" encoding="utf-8"?>
<!-- Svg Vector Icons : http://www.onlinewebfonts.com/icon -->
<!DOCTYPE svg PUBLIC "-//W3C//DTD SVG 1.1//EN" "http://www.w3.org/Graphics/SVG/1.1/DTD/svg11.dtd">
<svg version="1.1" xmlns="http://www.w3.org/2000/svg" xmlns:xlink="http://www.w3.org/1999/xlink" x="0px" y="0px" viewBox="0 0 1000 1000" enable-background="new 0 0 1000 1000" xml:space="preserve">
<metadata> Svg Vector Icons : http://www.onlinewebfonts.com/icon </metadata>
<g><g transform="translate(0.000000,511.000000) scale(0.100000,-0.100000)"><path d="M1749.9,4998.3c-788.2-64.8-1477.1-699.7-1624-1492.2c-34.6-190-34.6-6621.1,0-6811.1c66.9-358.5,228.9-665.1,496.7-941.5c233.2-241.9,531.2-421.1,844.4-505.3c131.7-36.7,349.8-38.9,3541.6-38.9c3191.8,0,3409.9,2.1,3541.6,38.9c313.1,84.2,611.1,263.5,844.4,505.3c168.5,174.9,254.8,295.8,354.2,509.6c162,343.4,151.2,41,151.2,3837.4c0,3191.7-2.1,3409.9-38.9,3541.6c-138.2,503.2-498.9,943.7-976.1,1183.4c-162,79.9-373.6,146.9-537.7,166.3C8185.2,5013.4,1989.6,5017.7,1749.9,4998.3z M8366.6,4365.6c442.7-112.3,794.7-464.3,907-907c28.1-112.3,32.4-537.7,32.4-3358c0-3554.5,8.6-3334.3-133.9-3628c-92.9-190-345.5-442.7-535.6-535.6c-293.7-142.5-73.4-133.9-3628-133.9c-3554.5,0-3334.3-8.6-3628,133.9c-190,92.9-442.7,345.5-535.6,535.6c-142.5,293.7-133.9,73.4-133.9,3628c0,2820.3,4.3,3245.7,32.4,3358c112.3,436.2,462.1,790.4,896.2,904.8C1823.3,4413.1,8178.7,4413.1,8366.6,4365.6z"/><path d="M2896.6,3100.1c-222.4-110.1-334.7-291.5-336.9-537.7c-2.2-401.7,362.8-693.2,745-593.9c211.6,51.8,354.1,179.2,429.7,373.6c88.6,231.1,38.9,464.3-136,641.4C3399.7,3180,3140.6,3223.2,2896.6,3100.1z"/><path d="M6628.2,3130.3c-142.5-51.8-311-228.9-354.2-373.6c-45.3-155.5-43.2-278.6,8.7-414.6c75.6-196.5,215.9-319.6,423.3-373.6c388.7-99.3,751.5,187.9,749.4,593.9c0,244-114.5,429.7-334.7,537.7C6967.3,3177.8,6792.3,3188.6,6628.2,3130.3z"/><path d="M2950.6,675c-269.9-97.2-447-416.8-384.4-695.4c66.9-298,304.5-483.7,615.5-483.7c317.5,0,596,278.6,596,593.9c0,233.2-146.8,466.5-356.3,563.6C3296.1,711.7,3084.4,722.5,2950.6,675z"/><path d="M6595.8,655.5c-133.9-64.8-276.4-220.3-321.8-354.2c-133.9-390.9,155.5-805.5,561.5-805.5c259.1,0,453.5,118.8,561.5,339.1c142.5,289.4,34.6,634.9-246.2,799c-77.8,47.5-131.7,58.3-272.1,64.8C6727.5,707.4,6688.7,700.9,6595.8,655.5z"/><path d="M3036.9-1758.8c-289.4-69.1-479.4-308.8-477.2-604.7c0-323.9,233.2-570.1,561.5-598.2c358.5-28.1,656.5,250.5,656.5,613.3C3777.6-1979,3391.1-1672.4,3036.9-1758.8z"/><path d="M6736.2-1754.4c-362.8-75.6-570.1-429.8-466.4-790.4c49.7-166.3,211.6-332.5,377.9-388.7c308.8-101.5,643.5,49.7,773.1,349.8c51.8,120.9,47.5,336.9-13,472.9C7297.6-1858.1,6997.5-1698.3,6736.2-1754.4z"/></g></g>
</svg>