<?xml version="1.0" encoding="utf-8"?>
<!-- Svg Vector Icons : http://www.onlinewebfonts.com/icon -->
<!DOCTYPE svg PUBLIC "-//W3C//DTD SVG 1.1//EN" "http://www.w3.org/Graphics/SVG/1.1/DTD/svg11.dtd">
<svg version="1.1" xmlns="http://www.w3.org/2000/svg" xmlns:xlink="http://www.w3.org/1999/xlink" x="0px" y="0px" viewBox="0 0 1000 1000" enable-background="new 0 0 1000 1000" xml:space="preserve">
<metadata> Svg Vector Icons : http://www.onlinewebfonts.com/icon </metadata>
<g><g transform="translate(0.000000,511.000000) scale(0.100000,-0.100000)"><path d="M1748.1,4993c-787.4-64.7-1475.5-698.9-1622.2-1490.6c-34.5-189.8-34.5-6613.8,0-6803.7c66.9-358.1,228.6-664.4,496.1-940.5c233-241.6,530.6-420.6,843.4-504.8c131.6-36.7,349.5-38.8,3537.7-38.8c3188.3,0,3406.2,2.1,3537.7,38.8c543.6,148.9,1011.7,560.9,1227.4,1082.9c138,330,131.6,140.2,131.6,3772.9v3306.9l-51.8,204.9c-86.3,338.7-245.9,614.8-502.6,860.7c-291.2,282.6-645,459.5-1007.4,504.8C8176.4,5008.1,1987.5,5012.4,1748.1,4993z M8357.6,4360.9c442.2-112.2,793.8-463.8,906-906c28-112.2,32.4-537.1,32.4-3354.4c0-3550.7,8.6-3330.6-133.8-3624c-92.8-189.8-345.1-442.2-535-535c-293.4-142.4-73.3-133.8-3624-133.8c-3550.7,0-3330.6-8.6-3624,133.8c-189.8,92.8-442.2,345.1-535,535c-142.4,293.4-133.7,73.3-133.7,3624c0,2817.2,4.3,3242.2,32.4,3354.4c112.2,435.8,461.6,789.5,895.2,903.8C1821.4,4408.4,8169.9,4408.4,8357.6,4360.9z"/><path d="M2328.3,3127c-138-49.6-306.3-226.5-355.9-371c-79.8-241.6,6.5-539.3,194.1-677.3c133.8-97.1,224.4-129.4,381.8-129.4c343,0,606.2,263.2,606.2,610.5c0,228.7-112.2,420.6-308.5,526.3C2701.5,3165.9,2479.3,3183.1,2328.3,3127z"/><path d="M4724.9,637.7c-211.4-105.7-325.7-293.4-325.7-537.1s114.3-431.4,325.7-537.1c414.2-207.1,882.3,79.8,882.3,539.3C5607.2,560,5139.1,844.8,4724.9,637.7z"/><path d="M7326.5-1756.7c-291.2-69-476.7-306.3-474.6-604c2.1-539.3,649.3-802.5,1033.3-420.7c364.6,364.6,144.5,981.5-368.9,1033.3C7458.1-1741.6,7371.8-1745.9,7326.5-1756.7z"/></g></g>
</svg>